<svg xmlns="http://www.w3.org/2000/svg" width="108" height="108" viewBox="0 0 108 108" role="img" aria-label="300 Lite icon">
  <rect width="108" height="108" rx="24" fill="#FCF4CF"/>
  <g transform="translate(19.2 19.2) scale(2.9)">
    <g transform="rotate(60 12 12)">
      <path d="M12,12 C9.2,9.2 8.4,4.6 11.2,1.1 Q12,0.3 12.8,1.1 C15.6,4.6 14.8,9.2 12,12 Z" fill="#FCF4CF" stroke="#551200" stroke-width="0.26" stroke-linejoin="round"/>
      <path d="M12,8.5 C11.97,6.6 11.99,4.9 12,3.4" fill="none" stroke="#551200" stroke-width="0.18" stroke-opacity="0.5" stroke-linecap="round"/>
    </g>
    <g transform="rotate(180 12 12)">
      <path d="M12,12 C9.2,9.2 8.4,4.6 11.2,1.1 Q12,0.3 12.8,1.1 C15.6,4.6 14.8,9.2 12,12 Z" fill="#FCF4CF" stroke="#551200" stroke-width="0.26" stroke-linejoin="round"/>
      <path d="M12,8.5 C11.97,6.6 11.99,4.9 12,3.4" fill="none" stroke="#551200" stroke-width="0.18" stroke-opacity="0.5" stroke-linecap="round"/>
    </g>
    <g transform="rotate(300 12 12)">
      <path d="M12,12 C9.2,9.2 8.4,4.6 11.2,1.1 Q12,0.3 12.8,1.1 C15.6,4.6 14.8,9.2 12,12 Z" fill="#FCF4CF" stroke="#551200" stroke-width="0.26" stroke-linejoin="round"/>
      <path d="M12,8.5 C11.97,6.6 11.99,4.9 12,3.4" fill="none" stroke="#551200" stroke-width="0.18" stroke-opacity="0.5" stroke-linecap="round"/>
    </g>
    <g transform="rotate(0 12 12)">
      <path d="M12,12 C9.2,9.2 8.4,4.6 11.2,1.1 Q12,0.3 12.8,1.1 C15.6,4.6 14.8,9.2 12,12 Z" fill="#FBE29D" stroke="#551200" stroke-width="0.26" stroke-linejoin="round"/>
      <path d="M12,8.5 C11.97,6.6 11.99,4.9 12,3.4" fill="none" stroke="#551200" stroke-width="0.18" stroke-opacity="0.5" stroke-linecap="round"/>
    </g>
    <g transform="rotate(120 12 12)">
      <path d="M12,12 C9.2,9.2 8.4,4.6 11.2,1.1 Q12,0.3 12.8,1.1 C15.6,4.6 14.8,9.2 12,12 Z" fill="#FBE29D" stroke="#551200" stroke-width="0.26" stroke-linejoin="round"/>
      <path d="M12,8.5 C11.97,6.6 11.99,4.9 12,3.4" fill="none" stroke="#551200" stroke-width="0.18" stroke-opacity="0.5" stroke-linecap="round"/>
    </g>
    <g transform="rotate(240 12 12)">
      <path d="M12,12 C9.2,9.2 8.4,4.6 11.2,1.1 Q12,0.3 12.8,1.1 C15.6,4.6 14.8,9.2 12,12 Z" fill="#FBE29D" stroke="#551200" stroke-width="0.26" stroke-linejoin="round"/>
      <path d="M12,8.5 C11.97,6.6 11.99,4.9 12,3.4" fill="none" stroke="#551200" stroke-width="0.18" stroke-opacity="0.5" stroke-linecap="round"/>
    </g>
    <circle cx="12" cy="12" r="2.3" fill="#993B22" stroke="#551200" stroke-width="0.26"/>
  </g>
</svg>
